<svg width="241" height="118" viewBox="0 0 241 118" fill="none" xmlns="http://www.w3.org/2000/svg">
<g clip-path="url(#clip0_4_14)">
<path d="M15 60C15 32.3858 37.3858 10 65 10H241V118H15V60Z" fill="#F2F4F8"/>
<g opacity="0.4" filter="url(#filter0_f_4_14)">
<path d="M48 81C66.2254 81 81 66.2254 81 48C81 29.7746 66.2254 15 48 15C29.7746 15 15 29.7746 15 48C15 66.2254 29.7746 81 48 81Z" fill="#3DD9B3"/>
</g>
<path d="M48 76C66.2254 76 81 61.2254 81 43C81 24.7746 66.2254 10 48 10C29.7746 10 15 24.7746 15 43C15 61.2254 29.7746 76 48 76Z" fill="#48EEE6"/>
<path d="M61.33 34.9343V51.3819C61.333 52.4299 60.9895 53.4516 60.3491 54.299C59.7087 55.1464 58.8047 55.7755 57.7681 56.095C56.7316 56.4146 55.6162 56.408 54.5838 56.0764C53.5513 55.7447 52.6554 55.105 52.0258 54.2502C51.3961 53.3953 51.0655 52.3697 51.0818 51.3218C51.0981 50.2739 51.4605 49.2582 52.1165 48.4219C52.7725 47.5856 53.6879 46.9721 54.7303 46.6704C55.7726 46.3686 56.8876 46.3943 57.9137 46.7436V34.9343C57.9137 34.4981 57.7338 34.0797 57.4134 33.7713C57.0931 33.4628 56.6586 33.2895 56.2056 33.2895H44.2487V48.0923C44.2518 49.1404 43.9082 50.1621 43.2678 51.0095C42.6274 51.8569 41.7234 52.486 40.6869 52.8055C39.6503 53.1251 38.535 53.1185 37.5025 52.7868C36.4701 52.4551 35.5741 51.8155 34.9445 50.9607C34.3149 50.1058 33.9843 49.0801 34.0006 48.0322C34.0169 46.9843 34.3793 45.9687 35.0353 45.1324C35.6912 44.2961 36.6067 43.6826 37.649 43.3809C38.6913 43.0791 39.8063 43.1048 40.8325 43.4541V30H56.2056C57.5647 30 58.8681 30.5199 59.8291 31.4452C60.7901 32.3706 61.33 33.6256 61.33 34.9343Z" fill="white"/>
<mask id="mask0_4_14" style="mask-type:alpha" maskUnits="userSpaceOnUse" x="15" y="32" width="226" height="86">
<path d="M241 32H15V118H241V32Z" fill="#D9D9D9"/>
</mask>
<g mask="url(#mask0_4_14)">
<path d="M15.1325 132.681V114.104C14.3273 105.471 16.2976 88.3449 46.836 86.2126C74.8842 84.2541 80.8534 80.3007 95.5529 54.5299C107.653 33.3168 126.126 32.915 143.043 32.5471C145.259 32.4989 147.449 32.4513 149.594 32.3575C160.963 31.8606 196.067 31.9675 221.485 32.166C232.309 32.2505 241 41.0336 241 51.8243V224.286C241 235.174 232.146 244 221.225 244H34.775C23.8536 244 15 235.174 15 224.286V132.681H15.1325Z" fill="white"/>
</g>
</g>
<defs>
<filter id="filter0_f_4_14" x="0.875" y="0.875" width="94.25" height="94.25" filterUnits="userSpaceOnUse" color-interpolation-filters="sRGB">
<feFlood flood-opacity="0" result="BackgroundImageFix"/>
<feBlend mode="normal" in="SourceGraphic" in2="BackgroundImageFix" result="shape"/>
<feGaussianBlur stdDeviation="7.0625" result="effect1_foregroundBlur_4_14"/>
</filter>
<clipPath id="clip0_4_14">
<rect width="241" height="118" fill="white"/>
</clipPath>
</defs>
</svg>
